<?xml version="1.0" encoding="utf-8"?>
<!-- Generator: Adobe Illustrator 24.1.0, SVG Export Plug-In . SVG Version: 6.00 Build 0)  -->
<svg version="1.1" xmlns="http://www.w3.org/2000/svg" xmlns:xlink="http://www.w3.org/1999/xlink" x="0px" y="0px"
	 viewBox="0 0 500 286.3" style="enable-background:new 0 0 500 286.3;" xml:space="preserve">
<style type="text/css">
	.st0{display:none;}
	.st1{display:inline;}
</style>
<g id="Ebene_1" class="st0">
	<g class="st1">
		<path d="M78.4,263.9l128.1,2.7v3.7h-196v-3.7l17.5-1.7c14.5-1.3,14.5-7.4,14.5-90.4V74c0-17.2-2-34-9.4-34h-8.7v-4h39.7
			c-1.7,20.2-2.7,33.6-2.7,57.8v80C61.2,257.5,66.6,263.6,78.4,263.9z M37.7,14.8c0-7.4,5.7-13.1,13.1-13.1s13.1,5.7,13.1,13.1
			s-5.7,13.1-13.1,13.1C44.1,27.9,37.7,22.2,37.7,14.8z M79.4,202.4c-1,24.9,8.4,38,18.5,38c14.5,0,16.8-15.8,16.8-33.3
			C114.7,162.7,74,128.8,74,74c0-25.2,9.8-40.7,30.3-40.7c14.1,0,23.5,12.8,23.5,35.6c0,9.8-5.4,15.8-12.8,15.8
			c-8.1,0-12.8-7.7-12.8-13.8c0-7.1,7.7-12.8,13.8-11.8c0-11.8-7.1-20.5-12.8-20.5c-9.8,0-13.4,10.4-13.4,25.2
			c0,47.4,39.7,61.5,39.7,123.7c0,36-11.1,56.8-31.6,56.8c-13.8,0-26.6-15.8-26.6-41.4c0-15.1,5.4-25.6,13.8-25.6
			c7.4,0,13.1,4.7,13.1,12.8c0,10.1-7.1,13.8-11.4,13.8C83.8,204.1,81.4,203.4,79.4,202.4z M135.5,138.9c0-78,12.1-105.6,30.9-105.6
			s30.9,27.6,30.9,105.6s-12.1,105.6-30.9,105.6S135.5,216.8,135.5,138.9z M155.7,138.9c0,86.7,2.7,100.2,10.8,100.2
			c8.1,0,10.8-13.4,10.8-100.2s-2.7-100.2-10.8-100.2C158.4,38.7,155.7,52.1,155.7,138.9z M365.5,275l83,3v4H286.8v-4l18.1-3.7
			c16.8-3.4,17.5-11.1,17.5-28.2V61.5c0-14.1-1.7-18.8-8.1-20.5l-27.9,192c-5.7,39-20.8,50.4-34,50.4c-9.4,0-14.8-5.4-14.8-13.5
			c0-9.4,6.7-13.5,13.4-13.5c6,0,11.1,4.4,12.1,12.4c9.8-4.7,14.1-18.8,17.1-38.7L253.2,67.6c-3-17.5-9.1-26.9-21.5-26.9h-2v171.5
			c0,15.8,1.3,25.6,9.4,25.6c5.7,0,13.4-7.4,13.4-44.7c0-14.8-3-32.6-10.1-47.7l5-2c7.4,13.8,13.1,34.3,13.4,50.1
			c0.7,33.3-9.4,51.1-24.5,51.1c-17.1,0-25.6-13.4-25.6-32.3V40.7h-20.2v-4C208.1,34.3,222.3,17.8,230,0l3.7,1
			c-3.4,12.1-4,20.2-4,35h63.2v4l-11.1,1.3c-8.7,1-13.5,3-11.1,19.2l17.1,115.6l17.5-131.8c0.3-1.3,0.3-3,0.3-4.4h-3.4v-4h3.7
			c0.3-12.8-4.4-16.5-13.8-17.5l-11.1-1.3v-3.7h63.2v3.7l-13.1,1.3c-10.8,1-14.5,6.7-16.1,17.1l26.2-1v23.5
			c3-16.1,8.7-24.9,16.5-24.9c16.5,0,27.2,26.9,27.6,102.9v1.3c0,0.3,0,1,0,1.3c-0.3,76-9.8,102.9-26.6,102.9
			c-8.4,0-14.1-6.1-17.5-24.9v41.7C341.3,272.6,342.6,274.3,365.5,275z M341.3,112.3v32.6c0,58.8,6.7,88.8,13.5,88.8
			c6.4,0,10.4-10.8,10.4-96.1s-4-96.2-10.4-96.2C349.4,41.3,341.3,60.8,341.3,112.3z M451.5,135.1l-37,2.4v1.3
			c0,86.7,2.7,98.8,12.8,98.8c6.4,0,14.1-7.4,14.1-44.7c0-14.8-3-28.6-10.1-40.3l5-2c7.4,10.4,13.1,26.9,13.5,42.7
			c0.7,33.3-9.4,51.1-24.5,51.1c-18.8,0-30.9-27.6-30.9-105.6s12.1-105.6,30.9-105.6C443.8,33.3,457.3,59.8,451.5,135.1z
			 M414.6,131.4l18.8-3.4c6-61.9-0.3-89.4-8.1-89.4S414.6,51.4,414.6,131.4z M489.5,271.3c0,7.4-5.7,13.1-13.1,13.1
			s-13.1-5.7-13.1-13.1c0-7.4,5.7-13.1,13.1-13.1S489.5,263.9,489.5,271.3z M470.7,240.7L464,6.4h21.5l-7.4,234.3H470.7z"/>
	</g>
</g>
<g id="Ebene_2">
	<g>
		<path d="M82.7,264l123.7,3v4H8.2v-4l13.8-2c16.9-2.4,17.2-10.8,17.2-27.3V75.6c0-11.1-0.3-18.5-1.3-23.3
			c-1.7-7.8-5.7-10.1-15.5-11.5v-5.1h38.4c-1.7,20.2-2.4,33.7-2.4,58v153.7C58.4,261.6,59.7,263.3,82.7,264z M34.8,14.6
			c0-7.4,5.7-13.1,13.1-13.1s13.1,5.7,13.1,13.1s-5.7,13.1-13.1,13.1C41.2,27.7,34.8,22,34.8,14.6z M76.6,202.6v4.4
			c0,21.9,8.8,33,18.5,33c14.5,0,16.9-15.2,16.9-32.7c0-44.5-40.8-78.5-40.8-133.5c0-25.3,9.8-40.1,30.3-40.1
			c14.2,0,23.6,12.1,23.6,35.1c0,9.8-5.4,15.8-12.8,15.8c-9.1,0-12.8-7.1-12.8-13.8c0-7.4,6.4-11.8,12.1-11.8h1.7
			c0-11.8-7.1-19.9-12.8-19.9c-9.8,0-13.5,9.8-13.5,24.6c0,47.5,39.8,61.7,39.8,124c0,36.1-11.1,57-31.7,57
			c-13.8,0-26.6-15.8-26.6-41.5c0-15.8,5.4-24.9,15.5-24.9c6.7,0,11.5,4.7,11.5,12.1c0,10.1-7.1,13.8-11.5,13.8
			C81,204.3,78.6,203.7,76.6,202.6z M134.6,138.9c0-78.2,12.1-105.2,31-105.2s31,27,31,105.2s-12.1,105.8-31,105.8
			S134.6,217.1,134.6,138.9z M154.8,138.9c0,87,2.7,100.4,10.8,100.4c8.1,0,10.8-13.5,10.8-100.4c0-87-2.7-99.8-10.8-99.8
			C157.5,39.2,154.8,52,154.8,138.9z M368.8,264l80.6,3v4h-155v-4l13.8-2c17.2-2.4,17.5-11.1,17.5-28.3V61.4
			c0-15.2-0.3-19.2-4.7-20.2c-5.1,1-6.1,4.7-8.1,17.2c-8.8,58.3-15.2,115.9-27,173.2c-8.1,39.4-30,52.2-41.8,52.2
			c-9.4,0-14.8-5.4-14.8-13.5c0-9.4,6.7-13.5,13.5-13.5c7.4,0,12.5,5.1,11.8,13.8c12.5-4,21.6-25.6,25.6-46.2l-26-157.1
			c-3-17.5-9.1-26.6-21.6-26.6h-2v171.6c0,15.8,1.3,25.6,9.4,25.6c5.7,0,13.5-7.4,13.5-44.8c0-14.8-3-32.7-10.1-47.9l5.1-2
			c7.8,14.8,13.5,37.1,13.5,53.3c0,31.3-9.8,48.2-24.6,48.2c-17.2,0-25.6-13.5-25.6-32.4V40.9h-20.2v-5.1
			c17.5-2.4,32.4-16.5,37.8-34.4l4.7,1c-2.4,10.8-3.4,18.5-3.4,33.4h51.9v5.1c-7.4,0-11.5,2.4-11.5,11.8c0,2.4,0.3,4.7,0.7,7.8
			L288.3,173l14.8-106.2c0.7-4.7,1-8.8,1-12.1c0-10.4-3.4-13.8-11.8-13.8v-5.1h52.2V58c3-16.2,8.8-24.9,16.5-24.9
			c16.5,0,27.3,27,27.6,103.1v1.3c0,0.3,0,1,0,1.3c-0.3,76.2-9.8,103.1-26.6,103.1c-8.4,0-14.2-6.1-17.5-24.9v30.3
			C344.5,261.6,345.9,263,368.8,264z M344.5,112.3V145c0,59,6.7,89,13.5,89c6.4,0,10.4-10.8,10.4-96.4c0-85.6-4-96.4-10.4-96.4
			C352.6,41.2,344.5,60.7,344.5,112.3z M457.8,102.9c0,9.8-0.3,20.6-1.3,32.4l-37.1,2.4v1.3c0,87,2.7,99.1,12.8,99.1
			c6.4,0,14.2-7.4,14.2-44.8c0-14.8-3-28.7-10.1-40.4l5.1-2c7.8,11.1,13.5,29.3,13.5,45.8c0,31.3-9.8,48.2-24.6,48.2
			c-18.9,0-31-27.6-31-105.8s12.1-105.8,31-105.8C445.7,33.1,457.8,52,457.8,102.9z M440.9,84.3c0-31.3-5.1-45.8-10.8-45.8
			c-7.8,0-10.8,12.8-10.8,93l18.9-2.7C439.9,111.3,440.9,96.5,440.9,84.3z M491.8,271.7c0,7.4-5.7,13.1-13.1,13.1
			s-13.1-5.7-13.1-13.1c0-7.4,5.7-13.1,13.1-13.1S491.8,264.3,491.8,271.7z M474.3,242.1L467.6,6.1h23.3l-7.1,235.9H474.3z"/>
	</g>
</g>
</svg>
