<?xml version="1.0" encoding="utf-8"?>
<!-- Generator: Adobe Illustrator 24.1.0, SVG Export Plug-In . SVG Version: 6.00 Build 0)  -->
<svg version="1.1" id="Ebene_1" xmlns="http://www.w3.org/2000/svg" xmlns:xlink="http://www.w3.org/1999/xlink" x="0px" y="0px"
	 viewBox="0 0 500 283.96" style="enable-background:new 0 0 500 283.96;" xml:space="preserve">
<g>
	<path d="M78.37,263.45l128.09,2.69v3.7h-196v-3.7l17.48-1.68c14.46-1.34,14.46-7.4,14.46-90.44V73.5c0-17.15-2.02-33.96-9.41-33.96
		h-8.74v-4.03h39.67c-1.68,20.17-2.69,33.62-2.69,57.83v80.01C61.23,257.06,66.61,263.11,78.37,263.45z M37.69,14.33
		c0-7.4,5.71-13.11,13.11-13.11s13.11,5.71,13.11,13.11s-5.71,13.11-13.1,13.11C44.08,27.44,37.69,21.73,37.69,14.33z M79.38,201.93
		c-1.01,24.88,8.4,37.99,18.49,37.99c14.46,0,16.81-15.8,16.81-33.28C114.68,162.26,74,128.3,74,73.5
		c0-25.21,9.75-40.68,30.26-40.68c14.12,0,23.53,12.78,23.53,35.64c0,9.75-5.38,15.8-12.78,15.8c-8.07,0-12.78-7.73-12.78-13.78
		c0-7.06,7.73-12.78,13.78-11.77c0-11.77-7.06-20.51-12.78-20.51c-9.75,0-13.45,10.42-13.45,25.21c0,47.4,39.67,61.52,39.67,123.72
		c0,35.97-11.09,56.82-31.6,56.82c-13.78,0-26.56-15.8-26.56-41.35c0-15.13,5.38-25.55,13.78-25.55c7.4,0,13.11,4.71,13.11,12.78
		c0,10.09-7.06,13.78-11.43,13.78C83.75,203.61,81.4,202.94,79.38,201.93z M135.53,138.39c0-78,12.1-105.57,30.93-105.57
		s30.93,27.57,30.93,105.57s-12.1,105.57-30.93,105.57S135.53,216.38,135.53,138.39z M155.7,138.39
		c0,86.74,2.69,100.19,10.76,100.19c8.07,0,10.76-13.45,10.76-100.19S174.53,38.2,166.46,38.2C158.39,38.2,155.7,51.65,155.7,138.39
		z M365.49,274.54l83.04,3.03v4.03H286.82v-4.03l18.15-3.7c16.81-3.36,17.48-11.09,17.48-28.24V61.06c0-14.12-1.68-18.83-8.07-20.51
		l-27.9,191.97c-5.72,39-20.84,50.43-33.96,50.43c-9.41,0-14.79-5.38-14.79-13.45c0-9.41,6.72-13.45,13.45-13.45
		c6.05,0,11.09,4.37,12.1,12.44c9.75-4.71,14.12-18.83,17.15-38.66L253.2,67.11c-3.03-17.48-9.08-26.9-21.52-26.9h-2.02v171.46
		c0,15.8,1.34,25.55,9.41,25.55c5.71,0,13.45-7.4,13.45-44.71c0-14.79-3.03-32.61-10.09-47.74l5.04-2.02
		c7.4,13.78,13.11,34.29,13.45,50.09c0.67,33.28-9.41,51.1-24.54,51.1c-17.15,0-25.55-13.45-25.55-32.27V40.22h-20.17v-4.03
		c17.48-2.35,31.6-18.83,39.34-36.65l3.7,1.01c-3.36,12.1-4.03,20.17-4.03,34.96h63.21v4.03l-11.09,1.34
		c-8.74,1.01-13.45,3.03-11.09,19.16l17.15,115.65L305.33,43.9c0.34-1.34,0.34-3.03,0.34-4.37h-3.36V35.5h3.7
		c0.34-12.78-4.37-16.47-13.78-17.48l-11.09-1.34v-3.7h63.21v3.7l-13.11,1.34c-10.76,1.01-14.46,6.72-16.14,17.15l26.22-1.01V57.7
		c3.03-16.14,8.74-24.88,16.47-24.88c16.47,0,27.23,26.9,27.57,102.88v1.34c0,0.34,0,1.01,0,1.34
		c-0.34,75.98-9.75,102.88-26.56,102.88c-8.41,0-14.12-6.05-17.48-24.88v41.69C341.28,272.19,342.62,273.87,365.49,274.54z
		 M341.28,111.83v32.61c0,58.83,6.72,88.76,13.45,88.76c6.39,0,10.42-10.76,10.42-96.15s-4.03-96.15-10.42-96.15
		C349.35,40.89,341.28,60.39,341.28,111.83z M451.55,134.69l-36.98,2.35v1.34c0,86.74,2.69,98.84,12.78,98.84
		c6.39,0,14.12-7.4,14.12-44.71c0-14.79-3.03-28.58-10.09-40.34l5.04-2.02c7.4,10.42,13.11,26.9,13.45,42.7
		c0.67,33.28-9.41,51.1-24.54,51.1c-18.83,0-30.93-27.57-30.93-105.57s12.1-105.57,30.93-105.57
		C443.82,32.82,457.27,59.38,451.55,134.69z M414.57,130.99l18.83-3.36c6.05-61.86-0.34-89.43-8.07-89.43
		S414.57,50.97,414.57,130.99z M489.54,270.85c0,7.4-5.71,13.11-13.11,13.11s-13.11-5.72-13.11-13.11c0-7.4,5.71-13.11,13.11-13.11
		S489.54,263.45,489.54,270.85z M470.71,240.25L463.99,5.92h21.52l-7.4,234.33H470.71z"/>
</g>
</svg>
